<?xml version="1.0" encoding="utf-8" ?><svg xmlns="http://www.w3.org/2000/svg" xmlns:xlink="http://www.w3.org/1999/xlink" width="768" height="721" viewBox="0 0 768 721"><path fill="#F9F2E2" d="M0 0L768 0L768 721L0 721L0 0Z"/><path fill="#2A2120" d="M305.519 261.442C311.192 261.053 319.884 261.29 325.71 261.289L362.291 261.286L419.711 261.29C425.042 261.291 454.039 260.844 456.757 261.982C457.313 264.768 447.875 278.884 445.792 282.346L420.84 323.528L389.243 375.565C383.776 384.553 378.247 393.947 372.41 402.677C370.935 404.884 369.011 405.965 366.593 406.917C359.054 407.394 347.563 407.015 339.805 407.002L289.634 406.98L245.178 407.011C237.722 407.017 226.996 407.348 219.789 406.706C215.968 404.032 214.296 401.157 217.028 396.688C221.909 388.704 226.834 380.745 231.714 372.759L261.597 323.686L283.259 288.058C286.388 282.871 289.476 277.639 292.659 272.486C296.229 266.709 298.352 262.621 305.519 261.442Z"/><path fill="#2A2120" d="M486.438 259.833C487.886 260.018 490.13 260.544 491.05 261.637C495.606 267.047 500.543 276.103 504.274 282.258L523.878 314.603L558.754 371.97C563.562 379.885 568.456 387.776 573.283 395.679C574.012 397.177 575.684 399.49 575.606 401.195C575.395 405.775 571.283 406.906 567.58 406.972C558.868 407.128 550.212 407.004 541.533 407.001L487.406 407.001L429.776 407.013C420.878 407.016 408.815 407.605 400.23 406.258C393.005 405.125 406.873 386.005 408.793 382.863L430.423 347.368L463.95 292.261C469.704 282.783 475.43 273.115 481.373 263.755C482.682 261.693 484.218 260.702 486.438 259.833Z"/><path fill="#2A2120" d="M404.207 467.612C412.83 467.226 423.664 467.469 432.544 467.491C448.123 467.764 463.532 466.489 478.88 469.967C506.726 476.277 521.7 504.217 514.555 531.282C510.249 547.592 499.995 555.139 486.218 563.256C496.869 578.606 506.378 595.335 516.733 610.931C517.76 612.478 520.109 615.723 519.415 617.463C516.374 620 501.516 619.034 496.795 618.999C492.6 619.074 486.078 620.128 483.475 616.391C479.644 610.889 476.25 605.051 472.746 599.327L452.731 566.884L435.821 566.93C435.559 580.212 435.914 593.564 435.778 606.851C435.745 610.028 436.013 614.311 435.194 617.341C434.824 617.729 434.482 618.027 433.978 618.233C431.15 619.387 406.913 619.717 404.422 618.33C403.922 618.051 403.691 617.896 403.593 617.352C402.496 611.287 403.096 604.361 403.093 598.174L403.094 564.295L403.087 503.889C403.084 493.001 402.993 481.985 403.218 471.099C403.249 469.58 403.375 468.846 404.207 467.612Z"/><path fill="#F9F2E2" d="M435.884 496.741C447.952 496.715 467.489 494.555 476.558 503.361C484.227 510.807 482.902 525.566 475.603 532.96C465.378 540.39 448.624 538.316 435.783 538.206C435.616 524.938 435.533 509.948 435.884 496.741Z"/><path fill="#2A2120" d="M132.403 467.62C142.191 467.223 152.423 467.519 162.249 467.503C186.523 467.511 213.969 465.542 231.972 485.209C247.54 502.216 248.704 532.974 233.815 550.824C222.713 564.134 208.365 568.199 191.718 569.817C182.497 570.432 173.073 570.227 163.82 570.189C163.692 576.688 164.272 613.959 162.875 617.226C160.153 619.555 153.157 619.084 149.609 618.971C145.33 618.835 134.222 619.989 131.09 617.676C130.059 613.334 130.427 591.394 130.425 585.475L130.403 516.751L130.389 485.001C130.389 480.205 130.268 474.953 130.572 470.165C130.653 468.893 131.444 468.302 132.403 467.62Z"/><path fill="#F9F2E2" d="M163.827 496.81C181.086 496.74 210.157 493.135 210.4 518.616C210.466 525.623 209.088 529.851 204.16 534.944C196.492 541.409 188.752 540.873 179.161 540.899L163.826 540.91C163.581 526.211 163.582 511.509 163.827 496.81Z"/><path fill="#2A2120" d="M393.762 106.496C395.095 106.455 397.556 106.615 398.371 107.686C405.908 117.589 413.298 130.861 419.712 141.434L446.007 184.648C455.881 200.915 465.91 217.094 475.659 233.434C476.527 234.89 477.54 237.89 476.208 239.327C471.495 241.234 451.458 240.531 445.553 240.528L397.312 240.536L346.876 240.533C340.628 240.541 319.496 241.294 315.296 239.415C314.349 238.126 314.331 238.079 314.1 236.523C315.619 232.005 321.063 223.751 323.771 219.308L339.684 193.084L370.824 141.802C376.935 131.688 383.015 121.46 389.289 111.448C390.623 109.319 391.634 107.889 393.762 106.496Z"/><path fill="#2A2120" d="M591.66 467.631C595.754 467.342 600.932 467.462 605.095 467.49C608.547 467.513 620.4 466.603 622.081 469.722C624.936 475.018 627.149 481.573 629.306 487.229L642.141 521.123L664.699 580.73C668.59 591.003 672.835 601.252 676.321 611.665C676.843 613.225 677.499 615.246 677.08 616.882C676.886 617.639 676.73 617.934 676.017 618.287C673.644 619.461 647.658 619.414 645.452 618.283C643.91 617.493 642.906 615.696 642.132 614.222C640.573 611.254 639.662 607.733 638.551 604.569L632.417 587.415L618.562 587.416C605.955 587.423 590.33 587.875 578.005 587.24C575.21 593.018 568.83 615.155 565.068 617.906C564.055 618.646 562.543 618.895 561.325 619.004C558.595 619.251 555.75 618.928 553.002 618.941C547.79 618.967 541.975 619.656 536.867 618.826C535.387 618.586 534.179 618.219 533.295 616.948C533.424 616.11 533.591 615.279 533.795 614.456C534.93 609.856 539.12 599.672 540.97 594.858C545.189 583.919 549.341 572.953 553.424 561.962L576.056 502.169L583.463 482.664C585.364 477.671 587.066 470.414 591.66 467.631Z"/><path fill="#F9F2E2" d="M605.299 509.009C607.014 510.917 620.863 552.859 623.194 559.375L605.916 559.411C599.814 559.431 593.712 559.4 587.611 559.318C592.04 548.387 595.521 535.53 599.594 524.345C601.146 520.08 603.17 512.654 605.299 509.009Z"/><path fill="#2A2120" d="M249.909 467.607C255.219 467.235 279.587 466.798 283.615 468.05C285.045 468.495 286.143 470.237 286.954 471.46C291.516 478.344 295.222 486.22 299.219 493.481C305.66 505.183 312.352 516.791 318.534 528.63C323.036 520.691 349.7 471.798 353.543 468.66C354.454 467.917 355.694 467.699 356.827 467.558C361.955 466.919 367.692 467.516 372.878 467.571C376.329 467.607 379.869 467.286 383.301 467.492C384.903 467.588 386.433 467.737 387.541 468.971C387.58 473.221 377.599 487.888 375.045 492.043L354.173 526.247C350.169 533.16 345.841 539.928 341.628 546.716C339.511 550.127 336.771 553.796 335.341 557.543C333.643 561.991 334.54 597.69 334.572 605.041C334.588 608.755 335.142 613.47 334.27 617.049C334.091 617.784 334.038 617.891 333.356 618.229C331.054 619.368 305.572 619.573 303.317 618.473C302.381 618.016 302.095 617.544 301.87 616.557C300.874 612.204 301.579 606.414 301.584 601.919L301.604 569.23C301.604 567.477 301.773 559.566 301.213 558.367C298.186 551.894 293.141 544.325 289.46 538.201C279.402 521.334 269.225 504.539 258.931 487.815C255.815 482.783 251.274 476.166 249.015 470.717C248.581 469.67 249.324 468.509 249.909 467.607Z"/></svg>